<svg width="45" height="34" viewBox="0 0 45 34" fill="none" xmlns="http://www.w3.org/2000/svg">
<circle cx="22.5" cy="16.9999" r="15.8793" stroke="white"/>
<path d="M28.294 13.8455C28.3031 13.9819 28.3031 14.1183 28.3031 14.2548C28.3031 18.4158 25.3461 23.2104 19.9415 23.2104C18.2764 23.2104 16.7297 22.6939 15.4286 21.7974C15.6651 21.8266 15.8926 21.8364 16.1383 21.8364C17.5121 21.8364 18.7769 21.3394 19.7868 20.4916C18.4948 20.4623 17.4121 19.556 17.039 18.3087C17.221 18.3379 17.403 18.3574 17.5941 18.3574C17.8579 18.3574 18.1218 18.3184 18.3674 18.2502C17.0208 17.9578 16.0109 16.691 16.0109 15.161V15.1221C16.4021 15.356 16.8571 15.5021 17.3392 15.5216C16.5477 14.9564 16.0291 13.9916 16.0291 12.9002C16.0291 12.3155 16.1746 11.7795 16.4294 11.3118C17.8761 13.2218 20.0507 14.4691 22.4891 14.6056C22.4436 14.3717 22.4163 14.1281 22.4163 13.8845C22.4163 12.1498 23.7265 10.7368 25.3551 10.7368C26.2013 10.7368 26.9656 11.1169 27.5024 11.7308C28.1666 11.5944 28.8035 11.3313 29.3676 10.9707C29.1492 11.7016 28.6852 12.3155 28.0756 12.7053C28.667 12.6371 29.2403 12.4617 29.768 12.2181C29.3677 12.8417 28.8672 13.3972 28.294 13.8455Z" fill="white"/>
</svg>
