<svg width="45" height="34" viewBox="0 0 45 34" fill="none" xmlns="http://www.w3.org/2000/svg">
<circle cx="22.5" cy="17.0001" r="15.88" stroke="white"/>
<path d="M18.1884 23.4726H15.2353V15.1453H18.1884V23.4726ZM16.7102 14.0094C15.7659 14.0094 15 13.3245 15 12.4976C15 12.1004 15.1802 11.7195 15.5009 11.4386C15.8216 11.1578 16.2566 11 16.7102 11C17.1638 11 17.5988 11.1578 17.9195 11.4386C18.2403 11.7195 18.4205 12.1004 18.4205 12.4976C18.4205 13.3245 17.6542 14.0094 16.7102 14.0094ZM29.2408 23.4726H26.2941V19.4189C26.2941 18.4528 26.2718 17.2139 24.7587 17.2139C23.2233 17.2139 22.9881 18.2635 22.9881 19.3493V23.4726H20.0382V15.1453H22.8704V16.2812H22.9118C23.306 15.6269 24.2691 14.9365 25.7059 14.9365C28.6945 14.9365 29.244 16.6599 29.244 18.8983V23.4726H29.2408Z" fill="white"/>
</svg>
