<svg width="45" height="34" viewBox="0 0 45 34" fill="none" xmlns="http://www.w3.org/2000/svg">
<circle cx="22.5" cy="17.0001" r="15.88" stroke="white"/>
<path d="M29.8303 13.8249C29.6544 13.2046 29.1359 12.7161 28.4776 12.5503C27.2845 12.249 22.5 12.249 22.5 12.249C22.5 12.249 17.7156 12.249 16.5224 12.5503C15.8641 12.7161 15.3457 13.2046 15.1697 13.8249C14.85 14.9492 14.85 17.2951 14.85 17.2951C14.85 17.2951 14.85 19.6409 15.1697 20.7652C15.3457 21.3855 15.8641 21.8537 16.5224 22.0195C17.7156 22.3207 22.5 22.3207 22.5 22.3207C22.5 22.3207 27.2844 22.3207 28.4776 22.0195C29.1359 21.8537 29.6544 21.3855 29.8303 20.7652C30.15 19.6409 30.15 17.2951 30.15 17.2951C30.15 17.2951 30.15 14.9492 29.8303 13.8249ZM20.9352 19.4249V15.1652L24.9341 17.2951L20.9352 19.4249Z" fill="white"/>
</svg>
